<svg xmlns="http://www.w3.org/2000/svg" width="48" height="48" x="0" y="0" viewBox="0 0 172 172" style="fill:#000"><g fill="none" fill-rule="nonzero" stroke="none" stroke-dashoffset="0" stroke-linecap="butt" stroke-linejoin="miter" stroke-miterlimit="10" stroke-width="1" font-family="none" font-size="none" font-weight="none" text-anchor="none" style="mix-blend-mode:normal"><path fill="none" d="M0,172v-172h172v172z"/><g><path fill="#0d91d6" d="M86,21.5l-21.53583,22.75417l-21.57167,22.71833l-21.3925,22.61083v-68.08333z"/><path fill="#f88909" d="M86,21.5h-0.14333l-21.46417,22.6825l-21.53583,22.75417l-21.35667,22.53917v0.1075v0.3225v60.59417l31.13917,-31.13917l22.145,-22.145l22.18083,-22.18083l22.18083,-22.18083l31.35417,-31.35417z"/><path fill="#c757bc" d="M52.63917,119.36083l-31.13917,31.13917v-60.59417z"/><path fill="#d3638f" d="M74.78417,97.21583l-22.145,22.145l-31.13917,-29.455v-0.3225l21.3925,-22.61083z"/><path fill="#e07063" d="M96.965,75.035l-22.18083,22.18083l-31.89167,-30.24333l21.57167,-22.71833z"/><path fill="#ec7d36" d="M119.14583,52.85417l-22.18083,22.18083l-32.50083,-30.78083l21.53583,-22.75417z"/><path fill="#f88909" d="M150.5,21.5l-31.35417,31.35417l-33.14583,-31.35417z"/><path fill="#0095d5" d="M41.24417,68.62083l-12.61333,13.36583l-7.13083,-6.73667v-25.29833z"/><path fill="#2b88da" d="M53.8575,55.255l-12.61333,13.36583l-19.74417,-18.66917v-25.33417z"/><path fill="#557bde" d="M66.50667,41.925l-12.64917,13.33l-32.3575,-30.6375v-3.1175h23.39917z"/><path fill="#806ee3" d="M79.12,28.55917l-12.61333,13.36583l-21.6075,-20.425h41.10083z"/><path fill="#0095d5" d="M82.41667,89.58333l-60.91667,60.91667h12.00417h29.27583h80.55333z"/><path fill="#2b88da" d="M92.02,150.5h-29.24l-20.64,-20.60417l14.62,-14.62z"/><path fill="#557bde" d="M121.33167,150.5h-29.31167l-35.26,-35.22417l14.62,-14.62z"/><path fill="#806ee3" d="M150.5,150.5h-29.16833l-49.95167,-49.84417l14.62,-14.65583z"/></g></g></svg>